<?xml version="1.0" encoding="UTF-8"?>
<svg width="445.7" height="346.81" version="1.1" viewBox="0 0 445.70132 346.81067" xml:space="preserve" xmlns="http://www.w3.org/2000/svg" xmlns:cc="http://creativecommons.org/ns#" xmlns:dc="http://purl.org/dc/elements/1.1/" xmlns:rdf="http://www.w3.org/1999/02/22-rdf-syntax-ns#"><metadata><rdf:RDF><cc:Work rdf:about=""><dc:format>image/svg+xml</dc:format><dc:type rdf:resource="http://purl.org/dc/dcmitype/StillImage"/></cc:Work></rdf:RDF></metadata><defs><clipPath id="a"><path d="M 0,260.108 H 334.276 V 0 H 0 Z"/></clipPath></defs><g transform="matrix(1.3333 0 0 -1.3333 0 346.81)"><g clip-path="url(#a)"><g transform="translate(91.661 45.359)"><path d="m0 0h5.096l-1.569 4.162c-0.479 1.265-0.834 2.303-1.066 3.117-0.191-0.964-0.461-1.921-0.81-2.871zm-4.336-6.172 5.772 15.03h2.142l6.151-15.03h-2.265l-1.754 4.552h-6.284l-1.651-4.552z" fill="#e05b16"/></g><g transform="translate(102.9 39.187)"><path d="m0 0v15.03h1.989v-13.257h7.402v-1.773z" fill="#e05b16"/></g><g transform="translate(114.6 39.187)"><path d="m0 0v15.03h2.994l3.557-10.642c0.328-0.991 0.568-1.733 0.718-2.225 0.171 0.547 0.437 1.35 0.8 2.409l3.598 10.458h2.676v-15.03h-1.917v12.58l-4.367-12.58h-1.795l-4.347 12.794v-12.794z" fill="#e05b16"/></g><g transform="translate(134.83 45.359)"><path d="m0 0h5.096l-1.569 4.162c-0.479 1.265-0.834 2.303-1.066 3.117-0.191-0.964-0.461-1.921-0.81-2.871zm-4.336-6.172 5.772 15.03h2.142l6.151-15.03h-2.265l-1.754 4.552h-6.284l-1.651-4.552z" fill="#e05b16"/></g><g transform="translate(153.56 39.187)"><path d="m0 0v4.732l-4.305 6.438h1.798l2.202-3.367c0.407-0.63 0.785-1.26 1.136-1.89 0.335 0.584 0.741 1.242 1.218 1.973l2.164 3.284h1.723l-4.458-6.438v-4.732z" fill="#e05b16"/></g><g transform="translate(168.98 40.96)"><path d="m0 0h3.742c0.642 0 1.093 0.024 1.353 0.072 0.458 0.082 0.841 0.219 1.149 0.41 0.307 0.191 0.56 0.47 0.758 0.835 0.198 0.366 0.297 0.788 0.297 1.266 0 0.561-0.143 1.048-0.43 1.461-0.287 0.414-0.685 0.705-1.195 0.872-0.509 0.167-1.242 0.251-2.198 0.251h-3.476zm0 6.941h3.25c0.881 0 1.514 0.058 1.896 0.174 0.506 0.151 0.887 0.4 1.144 0.749 0.256 0.348 0.384 0.785 0.384 1.312 0 0.499-0.12 0.938-0.359 1.317-0.239 0.38-0.581 0.639-1.025 0.779-0.444 0.141-1.207 0.21-2.286 0.21h-3.004zm-1.989-8.714v15.029h5.638c1.149 0 2.07-0.152 2.764-0.456 0.693-0.304 1.236-0.773 1.629-1.404 0.394-0.633 0.59-1.294 0.59-1.984 0-0.643-0.174-1.248-0.523-1.815-0.348-0.567-0.875-1.025-1.579-1.374 0.909-0.266 1.608-0.721 2.097-1.363 0.489-0.643 0.733-1.402 0.733-2.277 0-0.703-0.149-1.358-0.446-1.962-0.297-0.605-0.664-1.072-1.102-1.4-0.437-0.328-0.986-0.576-1.645-0.743-0.66-0.168-1.468-0.251-2.425-0.251z" fill="#e05b16"/></g><g transform="translate(183.76 45.359)"><path d="m0 0h5.096l-1.569 4.162c-0.479 1.265-0.834 2.303-1.066 3.117-0.191-0.964-0.461-1.921-0.81-2.871zm-4.336-6.172 5.772 15.03h2.142l6.151-15.03h-2.265l-1.754 4.552h-6.284l-1.651-4.552z" fill="#e05b16"/></g><g transform="translate(197.1 47.583)"><path d="m0 0h4.275c0.909 0 1.62 0.094 2.132 0.282 0.513 0.188 0.903 0.489 1.169 0.902 0.267 0.414 0.4 0.863 0.4 1.348 0 0.711-0.258 1.296-0.774 1.753-0.516 0.458-1.331 0.687-2.445 0.687h-4.757zm-1.989-8.396v15.029h6.664c1.339 0 2.358-0.135 3.055-0.405s1.254-0.747 1.671-1.43c0.417-0.684 0.625-1.439 0.625-2.266 0-1.066-0.345-1.965-1.035-2.696-0.69-0.732-1.757-1.196-3.199-1.394 0.526-0.253 0.926-0.503 1.2-0.749 0.581-0.533 1.131-1.199 1.651-1.999l2.614-4.09h-2.502l-1.989 3.126c-0.581 0.903-1.059 1.593-1.435 2.071-0.376 0.479-0.712 0.814-1.01 1.005-0.297 0.192-0.6 0.324-0.907 0.4-0.226 0.047-0.595 0.072-1.107 0.072h-2.307v-6.674z" fill="#e05b16"/></g><g transform="translate(212.26 47.583)"><path d="m0 0h4.275c0.909 0 1.62 0.094 2.132 0.282 0.513 0.188 0.903 0.489 1.169 0.902 0.267 0.414 0.4 0.863 0.4 1.348 0 0.711-0.258 1.296-0.774 1.753-0.516 0.458-1.331 0.687-2.445 0.687h-4.757zm-1.989-8.396v15.029h6.664c1.339 0 2.358-0.135 3.055-0.405s1.254-0.747 1.671-1.43c0.417-0.684 0.625-1.439 0.625-2.266 0-1.066-0.345-1.965-1.035-2.696-0.69-0.732-1.757-1.196-3.199-1.394 0.526-0.253 0.926-0.503 1.2-0.749 0.581-0.533 1.131-1.199 1.651-1.999l2.614-4.09h-2.502l-1.989 3.126c-0.581 0.903-1.059 1.593-1.435 2.071-0.376 0.479-0.712 0.814-1.01 1.005-0.297 0.192-0.6 0.324-0.907 0.4-0.226 0.047-0.595 0.072-1.107 0.072h-2.307v-6.674z" fill="#e05b16"/></g><g transform="translate(226.85 46.476)"><path d="m0 0c0-1.811 0.487-3.238 1.461-4.28s2.195-1.564 3.665-1.564c1.497 0 2.728 0.527 3.696 1.579 0.967 1.053 1.45 2.546 1.45 4.48 0 1.224-0.206 2.292-0.62 3.204-0.413 0.913-1.018 1.62-1.814 2.123-0.796 0.502-1.69 0.753-2.681 0.753-1.408 0-2.619-0.483-3.635-1.451-1.015-0.967-1.522-2.582-1.522-4.844m-2.05 0.031c0 2.494 0.669 4.448 2.009 5.859 1.339 1.411 3.069 2.117 5.187 2.117 1.388 0 2.639-0.332 3.753-0.994 1.114-0.663 1.963-1.588 2.547-2.774 0.585-1.185 0.877-2.53 0.877-4.034 0-1.524-0.307-2.888-0.923-4.09-0.615-1.203-1.486-2.114-2.614-2.733-1.128-0.618-2.344-0.927-3.65-0.927-1.414 0-2.679 0.341-3.793 1.025-1.114 0.683-1.958 1.616-2.532 2.799-0.574 1.182-0.861 2.433-0.861 3.752" fill="#e05b16"/></g><g transform="translate(38.125 89.608)"><path d="m0 0c-1.29-6.585-2.833-13.667 0-13.667s3 6.334 5.833 13.667c2.834 7.333 9.667 18.333 17 22.667 7.334 4.333 11.834 2.166 9.167-9-2.666-11.167-6.333-24.5-7.5-30.167s-1.667-8.667 1.333-9.667c3.001-1 5.001 0.334 10.501 6.667s16 18 18 20.167c2 2.166 5.333 5 4.5-2.5-0.834-7.5-1.5-19.334 2.333-20.334s6 2 12.5 10.167 11 13.5 13.167 13.667c2.166 0.166 3.333-6.167 4.333-10.334l1-4.166s2.333-6 7.5-5.834c5.166 0.167 12.5 11.667 14.666 14.834 2.167 3.166 2 4.166 1.834-1.834-0.167-6 2.5-13.166 6.166-11.833 3.667 1.333 3.167 4.167 1 9-2.166 4.833-2.666 14.5-1.5 17.833 1.167 3.334-3.166 6.167-7.166-1.166-4-7.334-9-15.5-12.834-15.834-3.833-0.333-2.833 11.667-7.5 17.834-4.666 6.166-10.333 2-14.666-2.834-4.333-4.833-10.167-13.666-12.333-13.333-2.167 0.333 1.833 13.167-0.167 19.333-2 6.167-5 7-11.833 0-6.834-7-14.334-15.833-16-15.333-1.667 0.5 3.666 14.167 3.166 24.667s-3.5 18.166-16.166 13.333c-12.667-4.833-24.74-27.863-26.334-36" fill="#231f20"/></g><g transform="translate(153.12 121.27)"><path d="m0 0c-2.357-1.972-5-6.833 0-9s9.741 0 10.704 2.167c0.963 2.166-2.537 13.666-10.704 6.833" fill="#231f20"/></g><g transform="translate(243.86 94.939)"><path d="m0 0c1.523 3.7 4.373 4.874 6.005 2.915 1.632-1.958-0.163-4.352-1.523-5.93s-5.549-4.951-5.549-4.951-0.456 4.266 1.067 7.966m-12.329 8.899-0.599 5.223-0.381 4.135c-0.38 4.135 0.273 16.212 0.98 19.259s3.645-4.896 3.101-14.145-3.101-14.472-3.101-14.472m-7.127-14.525c-2.285-3.591-5.638-6.676-7.671-7.127-2.448-0.544-3.404 0.194-3.373 3.155 0.029 2.734 1.251 5.549 4.298 9.085 3.318 3.851 7.671 3.21 9.14 1.959s-0.109-3.482-2.394-7.072m-26.332 2.829c-0.924-4.353-3.862-7.29-5.603-7.454-1.741-0.163-4.244 0.164-3.482 6.202 0.762 6.039 3.81 7.144 5.875 7.236 2.449 0.109 4.135-1.632 3.21-5.984m86.268 1.481c-3.917 0.979-6.327 0.73-16.108-5.128-11.226-6.722-19.513-13.091-22.338-5.983 6.093 3.536 12.839 13.547 8.867 19.477-3.971 5.929-11.37 0.544-14.254-4.462-2.883-5.005-3.318-8.432-3.427-10.228-1.632 1.089-4.733 3.21-2.394 8.325 2.34 5.113 6.529 14.199 6.311 26.44s-2.393 24.917-7.834 24.917c-5.44 0-8.052-14.907-8.16-24.047-0.109-9.14 0.815-16.321 0.761-17.464-0.054-1.142-0.489-2.665-2.883-2.448-2.394 0.218-6.039 0.109-9.793-5.386-3.754-5.494-3.536-8.595-5.44-9.031-1.905-0.435-4.081-0.435-3.428 1.523 0.653 1.959 2.339 7.562-0.87 12.35-3.21 4.788-7.726 3.537-11.48 1.034s-11.153-5.277-13.002-5.604c-1.85-0.326-3.264 0.163-2.775 4.026 0.49 3.863 2.612 23.557 2.557 29.052-0.054 5.495-0.978 9.239-6.854 9.135-2.877-0.051-4.667-0.333-3-8s2.5-26.833 2.167-30.5c-0.334-3.667-1.5-5.667-4.334-5.667-2.833 0-3.426 0.167-3.463-2-0.037-2.166 0.577-2.574 3.243-2.574s3.863 0.762 3.591-3.319c-0.272-4.08-1.088-14.254-1.197-15.886s0-3.155 2.231-3.373c2.23-0.217 3.971 3.373 4.189 10.99 0.218 7.616-0.381 11.152 1.36 12.73s6.637 1.632 6.855 0.925c-0.87-1.686-4.57-14.091 1.958-17.409 6.529-3.319 11.752 1.687 13.438 3.862 1.687 2.177 2.068 2.884 3.754 2.014 1.687-0.871 3.427-1.742 5.06-0.381 0.326-2.503 1.414-8.651 8.323-8.923 6.91-0.272 11.806 3.101 15.016 12.078 0.598-0.544 2.067-2.883 3.699-3.482 1.632-0.598 1.858-0.516 3.326-2.42 1.47-1.905 7.45-8.743 17.13-3.928 10.32 5.133 17.7 10.339 21.19 12.115 2.623 1.334 3.384 1.746 5.234-0.43 1.849-2.176 2.285-3.101 5.331-1.958 3.047 1.142 1.36 8.058-2.557 9.038" fill="#231f20"/></g><g transform="translate(254.38 107.67)"><path d="m0 0c2.076-2.225 9.474-3.326 13.26-2.827s9.526 1.141 5.794-4.536c-3.732-5.676-21.546-29.124-23.48-32.034s-3.204-5.457-0.253-6.353c2.951-0.897 5.026-0.98 7.774 2.807s4.694 8.807 7.856 6.684c3.162-2.122 7.439-8.896 18.205-4.473 7.592 3.119 13.089 6.232 10.479 10.622-2.609 4.39-3.749-1.409-9.827-4.025-6.078-2.615-7.245-3.608-11.556-0.449-4.311 3.158-5.431 4.372-4.451 6.151 1.765 3.206 12.415 19.857 15.238 23.94 3.582 5.182 5.35 7.19 2.855 9.757-2.496 2.566-6.359 0.122-11.473-1.103-5.113-1.225-13.485-2.845-17.568-0.994-4.082 1.851-6.092 0.305-2.853-3.167" fill="#231f20"/></g><g transform="translate(212.35 195.39)"><path d="m0 0c0-18.184-15.962-32.925-35.652-32.925-19.691 0-35.653 14.741-35.653 32.925s15.962 32.925 35.653 32.925c19.69 0 35.652-14.741 35.652-32.925" fill="#e05b16"/></g><g transform="translate(185.87 198.6)"><path d="m0 0c0-6.075-5.222-11-11.663-11s-11.662 4.925-11.662 11c0 6.076 5.221 11.001 11.662 11.001s11.663-4.925 11.663-11.001" fill="#0a917e"/></g><g transform="translate(173.92 207.6)"><path d="m0 0c4.321 0.085 5.577-0.748 6.548-4.25 0.971-3.5 1.005-9.625-4.478-10.613s-6.48 4.748-7.739 6.581c-1.324 1.929-1.365 8.143 5.669 8.282m30.645-25.625c-5.669-8.179-14.81-14.137-27.573-14.168-9.215-0.022-21.188 2.973-26.465 8.856-7.18 8.005-4.229 19.168-0.569 24.323 3.889 5.479 10.312 10.695 12.372 5.123-2.223-3.761-4.074-12.267 0.013-17.286s8.984-6.19 14.733-5.437c5.813 0.762 10.766 2.431 12.402 6.977s4.338 17.647-5.829 23.168-18.365 8.719-31.95 1.198c4.436 5.756 9.048 9.784 24.284 8.705 15.237-1.078 22.236-6.987 26.295-14.524 4.059-7.538 7.652-19.194 2.287-26.935m-7.633 44.143c-11.702 6.548-30.08 6.448-39.699 1.118-15.322-8.49-24.373-29.136-18.76-41.844 5.612-12.707 20.061-25.243 41.981-23.633 21.92 1.611 33.549 13.795 34.847 31.693s-6.666 26.118-18.369 32.666" fill="#231f20"/></g></g></g></svg>
